<svg xmlns="http://www.w3.org/2000/svg" xmlns:xlink="http://www.w3.org/1999/xlink" width="500" zoomAndPan="magnify" viewBox="0 0 375 374.999991" height="500" preserveAspectRatio="xMidYMid meet" version="1.0"><defs><g/></defs><g fill="#000000" fill-opacity="1"><g transform="translate(117.52571, 347.054466)"><g><path d="M 4.671875 -4.4375 L -95.609375 -110.015625 L -74.46875 -130.09375 L 8.765625 -42.453125 L 30.515625 -63.125 L 47.5625 -45.1875 Z M 4.671875 -4.4375 "/></g></g></g><g fill="#000000" fill-opacity="1"><g transform="translate(166.31983, 300.70899)"><g><path d="M 31.421875 -27.96875 C 13.472656 -10.925781 -4.332031 -11.707031 -22 -30.3125 L -56.328125 -66.453125 C -64.421875 -74.960938 -68.460938 -84.015625 -68.453125 -93.609375 C -68.453125 -103.203125 -64.269531 -111.96875 -55.90625 -119.90625 C -47.550781 -127.84375 -38.582031 -131.566406 -29 -131.078125 C -19.425781 -130.585938 -10.59375 -126.085938 -2.5 -117.578125 L 31.828125 -81.4375 C 49.492188 -62.832031 49.359375 -45.007812 31.421875 -27.96875 Z M 15.65625 -44.5625 C 17.375 -46.195312 18.054688 -48.015625 17.703125 -50.015625 C 17.359375 -52.023438 16.175781 -54.09375 14.15625 -56.21875 L -27.640625 -100.21875 C -32.617188 -105.46875 -36.785156 -106.5 -40.140625 -103.3125 C -43.503906 -100.125 -42.695312 -95.90625 -37.71875 -90.65625 L 4.078125 -46.65625 C 6.097656 -44.53125 8.101562 -43.238281 10.09375 -42.78125 C 12.082031 -42.332031 13.9375 -42.925781 15.65625 -44.5625 Z M 15.65625 -44.5625 "/></g></g></g><g fill="#000000" fill-opacity="1"><g transform="translate(227.404664, 242.689589)"><g><path d="M 41.015625 -13.921875 C 34.628906 -7.859375 29.125 -3.609375 24.5 -1.171875 C 19.875 1.265625 14.4375 2.722656 8.1875 3.203125 L 3.765625 -16.21875 C 11.960938 -18.082031 18.644531 -21.460938 23.8125 -26.359375 C 27.164062 -29.554688 28.691406 -33.035156 28.390625 -36.796875 C 28.097656 -40.566406 26.203125 -44.296875 22.703125 -47.984375 L 18.03125 -52.90625 C 22.144531 -45.113281 20.515625 -37.71875 13.140625 -30.71875 C 6.992188 -24.875 0.484375 -22.660156 -6.390625 -24.078125 C -13.265625 -25.503906 -20.007812 -29.703125 -26.625 -36.671875 L -58.71875 -70.453125 C -66.269531 -78.410156 -70.71875 -85.757812 -72.0625 -92.5 C -73.414062 -99.25 -70.773438 -105.78125 -64.140625 -112.09375 C -60.285156 -115.75 -56.316406 -117.679688 -52.234375 -117.890625 C -48.148438 -118.097656 -44.070312 -116.796875 -40 -113.984375 L -49.5625 -124.0625 L -27.5625 -144.953125 L 43.421875 -70.21875 C 52.984375 -60.144531 57.53125 -50.675781 57.0625 -41.8125 C 56.601562 -32.945312 51.253906 -23.648438 41.015625 -13.921875 Z M 6.328125 -55.109375 C 9.691406 -58.304688 8.492188 -62.9375 2.734375 -69 L -27.734375 -101.078125 C -29.441406 -102.878906 -31.566406 -104.128906 -34.109375 -104.828125 C -36.648438 -105.535156 -38.660156 -105.1875 -40.140625 -103.78125 C -42.015625 -101.988281 -42.632812 -100.101562 -42 -98.125 C -41.375 -96.15625 -39.9375 -93.984375 -37.6875 -91.609375 L -7.21875 -59.53125 C -4.644531 -56.820312 -2.234375 -54.941406 0.015625 -53.890625 C 2.265625 -52.835938 4.367188 -53.242188 6.328125 -55.109375 Z M 6.328125 -55.109375 "/></g></g></g><g fill="#000000" fill-opacity="1"><g transform="translate(289.349854, 183.853005)"><g><path d="M 31.421875 -27.96875 C 13.472656 -10.925781 -4.332031 -11.707031 -22 -30.3125 L -56.328125 -66.453125 C -64.421875 -74.960938 -68.460938 -84.015625 -68.453125 -93.609375 C -68.453125 -103.203125 -64.269531 -111.96875 -55.90625 -119.90625 C -47.550781 -127.84375 -38.582031 -131.566406 -29 -131.078125 C -19.425781 -130.585938 -10.59375 -126.085938 -2.5 -117.578125 L 31.828125 -81.4375 C 49.492188 -62.832031 49.359375 -45.007812 31.421875 -27.96875 Z M 15.65625 -44.5625 C 17.375 -46.195312 18.054688 -48.015625 17.703125 -50.015625 C 17.359375 -52.023438 16.175781 -54.09375 14.15625 -56.21875 L -27.640625 -100.21875 C -32.617188 -105.46875 -36.785156 -106.5 -40.140625 -103.3125 C -43.503906 -100.125 -42.695312 -95.90625 -37.71875 -90.65625 L 4.078125 -46.65625 C 6.097656 -44.53125 8.101562 -43.238281 10.09375 -42.78125 C 12.082031 -42.332031 13.9375 -42.925781 15.65625 -44.5625 Z M 15.65625 -44.5625 "/></g></g></g></svg>